<?xml version="1.0" encoding="UTF-8"?>
<!DOCTYPE svg PUBLIC "-//W3C//DTD SVG 1.1//EN" "http://www.w3.org/Graphics/SVG/1.1/DTD/svg11.dtd">
<!-- Creator: CorelDRAW -->
<svg xmlns="http://www.w3.org/2000/svg" xml:space="preserve" width="3in" height="1in`" style="shape-rendering:geometricPrecision; text-rendering:geometricPrecision; image-rendering:optimizeQuality; fill-rule:evenodd; clip-rule:evenodd"
viewBox="0 0 6.88738 1.84478"
 xmlns:xlink="http://www.w3.org/1999/xlink">
 <defs>
  <style type="text/css">
   <![CDATA[
    .fil0 {fill:#1F1A17;fill-rule:nonzero}
   ]]>
  </style>
 </defs>
 <g id="Layer_x0020_1">
  <metadata id="CorelCorpID_0Corel-Layer"/>
  <path class="fil0" d="M1.03854 1.1874c0,0.128861 -0.0392099,0.224492 -0.117626,0.287131l0 0.00286777c-0.0710029,0.0437512 -0.178108,0.0657466 -0.321556,0.0657466 -0.210864,0 -0.377257,-0.0129128 -0.499185,-0.038491 -0.0368175,-0.00789227 -0.0623996,-0.0172145 -0.076267,-0.0274953 -0.0160163,-0.0119543 -0.0239086,-0.0298838 -0.0239086,-0.0530734 0,-0.0365778 0.0246275,-0.0547509 0.0741142,-0.0547509 0.0239086,0 0.0545112,0.00358668 0.0918041,0.0105204 -0.0141032,-0.153485 -0.0210369,-0.284019 -0.0210369,-0.391364 0,-0.178348 0.0119543,-0.365786 0.0358589,-0.562303l-0.0344251 0.00286777 -0.00549984 0c-0.0435116,0 -0.0652674,-0.0210369 -0.0652674,-0.0631146 0,-0.0313176 0.0136278,-0.0533131 0.0406438,-0.0659863 0.0246236,-0.0117147 0.0657466,-0.0174502 0.123122,-0.0174502 0.092523,0 0.165203,0.011475 0.217797,0.0344251 0.0490114,0.0212765 0.073635,0.049251 0.073635,0.0831968 0,0.0186484 -0.00669409,0.035144 -0.0198426,0.0490114 -0.0133882,0.0141071 -0.0284499,0.0210408 -0.0451851,0.0210408 -0.0112354,0 -0.031078,-0.00669409 -0.0595279,-0.0203219 -0.0308423,-0.0143467 -0.0571394,-0.0227143 -0.0791348,-0.0251028 -0.0289291,0.191021 -0.0435116,0.378456 -0.0435116,0.562303 0,0.0817629 0.00908652,0.218273 0.0272556,0.409773 0.109254,0.0117147 0.196277,0.0174541 0.261309,0.0174541 0.116188,0 0.208471,-0.0205615 0.276606,-0.0616846 0.0198466,-0.0246236 0.0346686,-0.0731557 0.0449494,-0.144877 0.00645445,-0.0470982 0.0129089,-0.0767424 0.0188841,-0.0889363 0.0098015,-0.0200823 0.0282102,-0.0301234 0.0552262,-0.0301234 0.0470982,0 0.0707672,0.0329912 0.0707672,0.0987378zm0.846087 -0.308168c0,0.137229 -0.0401645,0.246727 -0.120494,0.32825 -0.080329,0.0815233 -0.187434,0.122167 -0.321556,0.122167 -0.111171,0 -0.198194,-0.0380117 -0.261069,-0.113799 -0.0631185,-0.0757878 -0.0946758,-0.18122 -0.0946758,-0.316296 0,-0.14201 0.0380157,-0.251983 0.114279,-0.330638 0.0745896,-0.076982 0.178348,-0.115473 0.310796,-0.115473 0.111171,0 0.201062,0.0389663 0.269677,0.116907 0.0686144,0.0779366 0.103043,0.18098 0.103043,0.308883zm-0.139382 0.00143389c0,-0.0939529 -0.0227143,-0.167352 -0.0683748,-0.220186 -0.0454247,-0.0530734 -0.107585,-0.0796141 -0.18648,-0.0796141 -0.176199,0 -0.264177,0.105672 -0.264177,0.317254 0,0.0977832 0.0191276,0.172852 0.057379,0.225207 0.0382514,0.0525981 0.093238,0.0788952 0.16472,0.0788952 0.0922833,0 0.164964,-0.0282102 0.217797,-0.0848703 0.0528377,-0.0564205 0.0791348,-0.135316 0.0791348,-0.236685zm1.21522 0.306734c0,0.128861 -0.0392099,0.224492 -0.117626,0.287131l0 0.00286777c-0.0710029,0.0437512 -0.178108,0.0657466 -0.321556,0.0657466 -0.210864,0 -0.377257,-0.0129128 -0.499185,-0.038491 -0.0368175,-0.00789227 -0.0623996,-0.0172145 -0.076267,-0.0274953 -0.0160163,-0.0119543 -0.0239086,-0.0298838 -0.0239086,-0.0530734 0,-0.0365778 0.0246275,-0.0547509 0.0741142,-0.0547509 0.0239086,0 0.0545112,0.00358668 0.0918041,0.0105204 -0.0141032,-0.153485 -0.0210369,-0.284019 -0.0210369,-0.391364 0,-0.178348 0.0119543,-0.365786 0.0358589,-0.562303l-0.0344251 0.00286777 -0.00549984 0c-0.0435116,0 -0.0652674,-0.0210369 -0.0652674,-0.0631146 0,-0.0313176 0.0136278,-0.0533131 0.0406438,-0.0659863 0.0246236,-0.0117147 0.0657466,-0.0174502 0.123122,-0.0174502 0.092523,0 0.165203,0.011475 0.217797,0.0344251 0.0490114,0.0212765 0.073635,0.049251 0.073635,0.0831968 0,0.0186484 -0.00669409,0.035144 -0.0198426,0.0490114 -0.0133882,0.0141071 -0.0284499,0.0210408 -0.0451851,0.0210408 -0.0112354,0 -0.031078,-0.00669409 -0.0595279,-0.0203219 -0.0308423,-0.0143467 -0.0571394,-0.0227143 -0.0791348,-0.0251028 -0.0289291,0.191021 -0.0435116,0.378456 -0.0435116,0.562303 0,0.0817629 0.00908652,0.218273 0.0272556,0.409773 0.109254,0.0117147 0.196277,0.0174541 0.261309,0.0174541 0.116188,0 0.208471,-0.0205615 0.276606,-0.0616846 0.0198466,-0.0246236 0.0346686,-0.0731557 0.0449494,-0.144877 0.00645445,-0.0470982 0.0129089,-0.0767424 0.0188841,-0.0889363 0.0098015,-0.0200823 0.0282102,-0.0301234 0.0552262,-0.0301234 0.0470982,0 0.0707672,0.0329912 0.0707672,0.0987378zm0.777473 -0.397104c0,0.0485321 -0.0167352,0.0846346 -0.0504453,0.107824 -0.0148221,0.0102808 -0.0623996,0.0236689 -0.142249,0.0399249 -0.105911,0.0219954 -0.196281,0.0329912 -0.270871,0.0329912 -0.0341893,0 -0.0753085,-0.0023885 -0.123365,-0.00692979 0,0.175955 0.0669409,0.263937 0.201062,0.263937 0.0368175,0 0.0702879,-0.0105204 0.100172,-0.0315573 0.0148221,-0.0102808 0.041838,-0.035144 0.0805687,-0.0748331 0.0138674,-0.0145824 0.0286895,-0.0217558 0.0439908,-0.0217558 0.019603,0 0.0365778,0.00741299 0.0509206,0.0219954 0.0141071,0.0148221 0.0212804,0.0327555 0.0212804,0.0542716 0,0.0176898 -0.00669409,0.0341854 -0.0203219,0.0490114 -0.080329,0.0877381 -0.174286,0.131729 -0.282346,0.131729 -0.223058,0 -0.334704,-0.129101 -0.334704,-0.387302 0,-0.133163 0.0353797,-0.247921 0.106386,-0.344745 0.0808083,-0.109734 0.18074,-0.164484 0.2998,-0.164484 0.0929983,0 0.169505,0.0310819 0.229752,0.0932419 0.0602468,0.0619203 0.0903702,0.141055 0.0903702,0.236682zm-0.139382 0.00836761c-0.00286777,-0.0647881 -0.0198426,-0.116188 -0.0506849,-0.154204 -0.031078,-0.0377721 -0.0700483,-0.0566601 -0.116667,-0.0566601 -0.0607261,0 -0.114039,0.0217558 -0.160418,0.0652674 -0.0475775,0.0437512 -0.0829611,0.105911 -0.10639,0.18648 0.0332308,0.00358668 0.0683748,0.00549984 0.105672,0.00549984 0.0906098,0 0.200108,-0.015541 0.32849,-0.0463833zm0.469065 -0.472173c0,0.0662259 -0.0325158,0.0994567 -0.0973039,0.0994567 -0.0262971,0 -0.0482925,-0.00908652 -0.0662259,-0.0272556 -0.0179295,-0.0184087 -0.0270121,-0.0401645 -0.0270121,-0.0659823 0,-0.0279745 0.0098015,-0.0518792 0.0294045,-0.0714861 0.019603,-0.019603 0.0437512,-0.0294045 0.0722011,-0.0294045 0.0265367,0 0.0480529,0.00860724 0.0643088,0.0258217 0.0164995,0.0174502 0.0246275,0.0404002 0.0246275,0.0688501zm-0.0301234 0.266809c0,0.281631 -0.0100411,0.489627 -0.0301234,0.624224 -0.00789227,0.054032 -0.0167352,0.0906098 -0.0265367,0.109258 -0.0126732,0.0246236 -0.0329951,0.0370571 -0.0609657,0.0370571 -0.0186484,0 -0.0344251,-0.00621874 -0.0475775,-0.0186484 -0.0131485,-0.0121939 -0.019603,-0.027016 -0.019603,-0.0444701 0,0.00239243 0.00382632,-0.0136239 0.0112354,-0.0482925 0.00884688,-0.039206 0.0160202,-0.0836761 0.0215201,-0.133642 0.00740907,-0.0710029 0.0112354,-0.150377 0.0112354,-0.238119 0,-0.038491 -0.000479272,-0.0788912 -0.00143389,-0.121209 -0.000958543,-0.042557 -0.00143389,-0.0657466 -0.00143389,-0.0693333 0,-0.0631146 0.00549591,-0.107105 0.0162559,-0.131729 0.0112354,-0.027016 0.0320366,-0.0406438 0.0628749,-0.0406438 0.0430362,0 0.0645524,0.0251028 0.0645524,0.0755481z"/>
  <g id="_106927032">
   <polygon id="_105063528" class="fil0" points="6.88738,0.581667 6.66264,0.514643 6.6302,0.577212 6.77361,0.605878 6.77666,0.606491 6.77561,0.60939 6.35364,1.7807 6.36789,1.84478 6.60904,1.26239 "/>
   <path id="_105997616" class="fil0" d="M4.46985 1.40471l0.009499 -1.23991 1.57138e-005 -0.00308777 0.00302884 0.000616767 0.144555 0.0294752 -0.00950293 -0.0667916 -0.231355 -0.0303473 0.0464972 1.34732c0.0189469,-0.0178313 0.0183184,-0.0194419 0.0372614,-0.0372732z"/>
   <path id="_106114392" class="fil0" d="M4.56426 0.994253l0.000549984 -0.000294634 0.0176898 0.348336c0.0123275,0.00990364 0.0295106,0.0170416 0.0451458,0.0249025 0.0158356,0.00795905 0.0334194,0.0148574 0.0527709,0.0206283 0.0388996,0.0116007 0.0842379,0.0189037 0.135921,0.0219522 0.051942,0.00306027 0.110291,0.00181887 0.174954,-0.00367311l7.85691e-006 0c0.0087251,-0.000714979 0.0248161,-0.0037006 0.0483829,-0.00883117 0.0237161,-0.00516199 0.054853,-0.012465 0.0935562,-0.0218029l0 -3.92846e-006c0.0256528,-0.0065998 0.0494278,-0.0101629 0.0712622,-0.0107483 0.0221093,-0.000597125 0.0422545,0.00184245 0.0603764,0.007248 0.0141935,0.00423095 0.0283634,0.0104183 0.042557,0.018613 0.0141267,0.00816333 0.0282574,0.0183341 0.0424273,0.0305673l0.00168924 0.00146139 -0.00109604 0.00187387 -0.00981721 0.0168138 -0.000734621 0.00125711 -0.00146139 -1.17854e-005 -0.845117 -0.00680408 -0.0331758 0.0300527 0.883011 0.020149c0.0131171,-0.0364953 0.0291491,-0.0621992 0.0479821,-0.0771352 0.019493,-0.0154585 0.0418695,-0.0194262 0.0670077,-0.0119307 0.0173284,0.00516985 0.0309798,0.0161106 0.0410759,0.0327869 0.0097465,0.0161067 0.0161342,0.0375717 0.0192691,0.0643363l0.828558 0.335404 -0.018452 -0.0449022 -0.778954 -0.325091 -0.00133175 -0.000553912 -0.000271063 -0.00142996 -0.0052052 -0.0270671 -0.000447844 -0.0023335 0.00223922 -0.000620696c0.0215161,-0.00597518 0.0421523,-0.0090708 0.0619007,-0.00932615 0.0198033,-0.000259278 0.0387189,0.00232172 0.0567622,0.0077037 0.0136042,0.00405809 0.0291059,0.0110193 0.0464815,0.0209387 0.0170809,0.0097465 0.0360396,0.0223961 0.0568447,0.0379882l1.96423e-005 3.92846e-006c0.0245568,0.0186444 0.0461358,0.0343386 0.0646781,0.0469333 0.0185462,0.0125946 0.0341304,0.0221526 0.0467133,0.0285284l3.92846e-005 2.35707e-005c0.0385892,0.0203848 0.0748999,0.0379371 0.108979,0.0526138 0.0339694,0.0146256 0.0656759,0.0263599 0.0951786,0.0351597 0.0394142,0.0117539 0.0752299,0.0186091 0.107545,0.020538 0.0317616,0.00188959 0.0831183,-0.00286777 0.108253,-0.0105086l0.374531 -0.959867 -0.0517535 0.00606161 -0.339858 0.910211 -0.00144174 0.00146531c-0.0284263,0.0109604 -0.0581176,0.0166959 -0.0889834,0.0172106 -0.0308737,0.000514628 -0.0629496,-0.00418773 -0.0961529,-0.0140914 -0.0238025,-0.00709872 -0.0534506,-0.0195991 -0.0889245,-0.0375521 -0.0351086,-0.0177723 -0.0759056,-0.0408795 -0.122364,-0.0693569 -0.0618535,-0.0377525 -0.109745,-0.0664773 -0.143707,-0.0861824 -0.0339379,-0.0196894 -0.0541302,-0.0304966 -0.0606318,-0.0324333 -0.0230915,-0.00688658 -0.0462458,-0.00951079 -0.0693962,-0.00785691 -0.0231465,0.00164995 -0.0463401,0.00757799 -0.0695022,0.017792l-0.00246314 0.00108425 -0.0010214 -0.00256921 -0.0100529 -0.02515 -0.000805333 -0.00200351 0.00177566 -0.0011314c0.0316044,-0.0201805 0.0615903,-0.0333408 0.0900205,-0.0395635 0.0285874,-0.00626196 0.0556269,-0.00553126 0.0811933,0.00209387 0.0115457,0.00344133 0.0324137,0.0142721 0.0627099,0.0325119 0.0302216,0.0182005 0.0697851,0.0437276 0.118781,0.0766167l-3.92846e-006 1.17854e-005c0.0310544,0.0209544 0.0613428,0.0387189 0.0907787,0.053317 0.0296245,0.0146924 0.0583808,0.0261674 0.0861824,0.0344604 0.0327162,0.00975828 0.0635467,0.0148888 0.0924758,0.0154035 0.0284813,0.000506771 0.0551516,-0.0034649 0.0799873,-0.0118875 0.159295,-0.378856 0.299065,-0.760219 0.444261,-1.14696 -0.0207344,0.015592 -0.0436451,0.0253267 -0.0686615,0.0293141 -0.0281906,0.00449022 -0.0590447,0.00167745 -0.092464,-0.00828904 -0.0146217,-0.00436059 -0.0336983,-0.0118168 -0.0570608,-0.0224354 -0.0223097,-0.0101433 -0.0486068,-0.023225 -0.0787577,-0.0393081l0 -3.92846e-006c-0.0317498,-0.0168216 -0.059685,-0.0310034 -0.0838214,-0.0425805 -0.0245489,-0.0117657 -0.0451772,-0.0208483 -0.0619085,-0.0272949l-7.85691e-006 -3.92846e-006c-0.0102847,-0.00403845 -0.0205262,-0.00781763 -0.0307127,-0.0113297 -0.0102022,-0.00351204 -0.0205655,-0.00683944 -0.0310937,-0.0099822 -0.0523388,-0.0156078 -0.101287,-0.0227615 -0.146744,-0.0213787 -0.0452204,0.00138282 -0.0870074,0.0112157 -0.125251,0.0295852l-2.35707e-005 1.57138e-005c-0.0311448,0.0146139 -0.064081,0.0371082 -0.0988635,0.0674516 -0.0347197,0.0302962 -0.07127,0.068414 -0.109675,0.11433l-0.0204398 0.107903c0.0805608,-0.111478 0.16265,-0.187434 0.246212,-0.227921 0.0862924,-0.0418105 0.174121,-0.0458372 0.26343,-0.0121625 0.0190412,0.007138 0.0433741,0.0183223 0.0729082,0.0335726 0.0288977,0.0149242 0.0628514,0.0337926 0.101786,0.0566287 0.0327555,0.0191473 0.0621835,0.0350104 0.0882802,0.0475343 0.0260221,0.0124807 0.0487678,0.0216576 0.0682412,0.0274638 0.00783334,0.00233743 0.0155724,0.0044038 0.0230954,0.00616767 0.00751121,0.00176388 0.0148181,0.00322526 0.0218069,0.00436844l0.00304455 0.000494985 -0.000927115 0.00293456c-0.106756,0.334834 -0.208141,0.66761 -0.331554,0.995518l-0.000428202 0.00113925 -0.00114318 0.000373203c-0.0271063,0.00889402 -0.0536627,0.0138399 -0.0796769,0.0147042 -0.0260574,0.000868189 -0.051557,-0.00234922 -0.0765027,-0.00978971 -0.020648,-0.00615982 -0.045189,-0.0175955 -0.073635,-0.0341933 -0.0283517,-0.0165427 -0.0605886,-0.0382239 -0.0967303,-0.0649099l-7.85691e-006 -1.57138e-005c-0.0397324,-0.0296206 -0.0739335,-0.0531599 -0.102698,-0.0706297 -0.028607,-0.0173756 -0.0517692,-0.0287052 -0.0695926,-0.0340204 -0.0311487,-0.00928687 -0.0652595,-0.00899616 -0.102203,0.000848546 -0.0371239,0.00988792 -0.0771195,0.0294202 -0.119857,0.0585576l-0.00175209 0.00119818 -0.0015321 -0.0015321c-0.00355918,-0.00354739 -0.00743657,-0.00628553 -0.0117343,-0.00817904 -0.00431344,-0.00190137 -0.00911009,-0.00298955 -0.0144842,-0.00322919l-0.00313098 -0.000137496 0.000640338 -0.00308384 0.181734 -0.850734 -0.0643599 -0.0141385 -0.151992 0.872475 -0.000223922 0.00118639 -0.00103318 0.000573554 -0.0231661 0.0128303 -0.00206244 0.00114318 -0.00136317 -0.0020153c-0.025311,-0.037501 -0.0506928,-0.0675812 -0.076102,-0.0901659 -0.0252285,-0.0224236 -0.050461,-0.0374303 -0.0756463,-0.0449415 -0.0183773,-0.00548019 -0.0461318,-0.00648195 -0.0832675,-0.0030092 -0.0373832,0.0034924 -0.0841514,0.0115222 -0.140289,0.0240736 -0.0563773,0.0126103 -0.104607,0.020318 -0.144779,0.0230718 -0.0403649,0.00276956 -0.0726528,0.000546055 -0.0969621,-0.00670194 -0.0171438,-0.00511485 -0.0339065,-0.0122057 -0.0502646,-0.0213237 -0.0161617,-0.0090158 -0.0319148,-0.0200115 -0.047224,-0.0330344l-0.000931044 -0.000789619 -2.35707e-005 -0.00121389 -0.002526 -0.197189 0.0345586 -0.862642 0.000137496 -0.00325669 0.00312312 0.000931044c0.0227222,0.00677658 0.0498835,0.0104536 0.0814251,0.0110036 0.0316044,0.000557841 0.0675851,-0.00201923 0.107883,-0.00773906 0.0513135,-0.00734228 0.0952179,-0.0126771 0.131635,-0.0159692 0.0365386,-0.0032999 0.0655856,-0.00454915 0.0870663,-0.0037006l0 7.85691e-006c0.0158827,0.000373203 0.0311448,0.00164995 0.0458176,0.00384989 0.0147513,0.00221172 0.0289409,0.0053427 0.042612,0.00942044 0.0704097,0.0209976 0.131124,0.0670902 0.182151,0.138215 0.0496164,0.0691605 0.0900716,0.162053 0.121362,0.278579l0.0269531 -0.0903859c-0.034979,-0.102686 -0.0781723,-0.184905 -0.129674,-0.246526 -0.0514903,-0.0616139 -0.111325,-0.102654 -0.17957,-0.123008 -0.0213865,-0.00637588 -0.0442973,-0.0114279 -0.0685987,-0.0151796l0 0c-0.0245882,-0.00379096 -0.0506378,-0.00625803 -0.0779955,-0.00742871l-1.96423e-005 -3.92846e-006c-0.0114868,-0.000573554 -0.0326062,-2.35707e-005 -0.0633424,0.00164209 -0.0309484,0.00167352 -0.0711954,0.00445487 -0.12071,0.00834404l0 0c-0.0363461,0.00288741 -0.0681744,0.00363382 -0.0955479,0.00229422 -0.0276838,-0.00135925 -0.0508499,-0.00484771 -0.0695612,-0.0104261 -0.0228165,-0.00680408 -0.0427298,-0.0172852 -0.0596654,-0.0314119 -0.014441,-0.0120407 -0.0266899,-0.0267253 -0.0367153,-0.0440262l0.010485 0.829662 -0.0019053 -0.000306419 0.00792369 0.414872c0.0137142,0.0117264 0.0287484,0.0220229 0.0451183,0.0308069 0.0165427,0.00888224 0.03448,0.0162402 0.0538159,0.0220072 0.0348808,0.0104025 0.0737685,0.0156745 0.116585,0.0158631l0 -3.92846e-006c0.0430362,0.000188566 0.0900598,-0.00475343 0.140969,-0.0147867l-3.92846e-006 -3.92846e-006c0.0620892,-0.0125671 0.112723,-0.0208562 0.151764,-0.0248396 0.039261,-0.00400702 0.0668977,-0.00364953 0.0827843,0.00108425 0.0221408,0.00660373 0.0436333,0.0187505 0.0645209,0.0364443 0.0207697,0.0176034 0.0409541,0.0407263 0.0605925,0.0693726l0.00123353 0.00180316 -0.0014771 0.0015046 -0.0172027 0.0175013 -0.00192101 0.00195637 -0.00186209 -0.00210958c-0.0145628,-0.0164877 -0.0300252,-0.030147 -0.0463479,-0.0410249 -0.0162795,-0.0108465 -0.0334312,-0.0189312 -0.0514274,-0.0242975 -0.0167588,-0.00499699 -0.0355761,-0.0077312 -0.0564558,-0.00814369 -0.020813,-0.000420345 -0.0436726,0.00146924 -0.068583,0.00570019 -0.0167234,0.00299348 -0.0385106,0.00694944 -0.0655856,0.0119464 -0.0226436,0.00417988 -0.0477897,0.00887045 -0.075006,0.0140049l-7.07122e-005 1.96423e-005c-0.0648706,0.0103004 -0.121358,0.015651 -0.169517,0.0160792 -0.0482768,0.00043213 -0.0881899,-0.00408166 -0.119798,-0.01351 -0.0215161,-0.00641517 -0.0415395,-0.0149478 -0.0602154,-0.0256882 -0.0186641,-0.0107404 -0.0359375,-0.0236689 -0.0519656,-0.0388878l-0.000832832 -0.000789619 -1.57138e-005 -0.0011314 -0.00689444 -0.383606 -0.00161067 0.000518556 0.0146964 -0.608879 -0.0635978 -0.0109682 0.0207776 0.628946 -0.000718907 0.000231779 0.00207815 0.0409149 0.00105675 0.0319894z"/>
   <path id="_106004816" class="fil0" d="M5.24097 0.969484c0.0298563,0.023115 0.0577247,0.0523545 0.0836132,0.0876399l0.00692979 -0.0828629c-0.0210447,-0.0317458 -0.0456486,-0.0581018 -0.0738235,-0.0791662 -0.0283909,-0.0212215 -0.0604589,-0.0371043 -0.0962157,-0.0477661 -0.0302609,-0.00902759 -0.0616296,-0.0139578 -0.0940983,-0.0147946 -0.0324923,-0.000840689 -0.066108,0.00241993 -0.100824,0.00978185 -0.0289566,0.00610875 -0.0544759,0.0138478 -0.0765027,0.0231032 -0.021799,0.00916116 -0.0401449,0.0197876 -0.0549787,0.0317694l-0.00427023 0.0347c0.0676951,-0.015046 0.127023,-0.0239871 0.178093,-0.0266546 0.052162,-0.00272242 0.0957836,0.00108033 0.130986,0.0115811 0.0359061,0.010705 0.0695965,0.0282849 0.101091,0.0526688z"/>
   <path id="_105997472" class="fil0" d="M5.3245 1.06577c-0.0267331,-0.0374067 -0.0555994,-0.0681508 -0.0866106,-0.0921576 -0.0309562,-0.0239714 -0.0640731,-0.0412527 -0.0993624,-0.051777 -0.0346529,-0.0103318 -0.0776891,-0.0140678 -0.129242,-0.0113768 -0.0517299,0.00270278 -0.111988,0.0118718 -0.180897,0.027346l-0.00366132 0.000821047 0.000463558 -0.00376739 0.0048595 -0.0394692 0.000911402 -0.00164602c0.0153878,-0.0125828 0.0344015,-0.0236847 0.0569862,-0.0331719 0.0222743,-0.00936151 0.0481,-0.0171909 0.077422,-0.0233782 0.0351165,-0.00744442 0.069129,-0.0107443 0.102022,-0.00989185 0.0329362,0.000852475 0.0647527,0.00584947 0.0954379,0.0150028 0.0363225,0.0108308 0.0689405,0.0270003 0.0978696,0.0486264 0.0289134,0.0216144 0.0541105,0.0486775 0.0756149,0.0812915l0.00043213 0.00169709 -0.00757799 0.0906452 -0.004667 0.00120604z"/>
   <path id="_106003424" class="fil0" d="M5.23452 0.757532c0.0365739,0.0280217 0.0710658,0.0636606 0.103358,0.106929l0.018118 -0.0905037c-0.0238064,-0.0356429 -0.0515256,-0.0654127 -0.0832322,-0.0892506 -0.031958,-0.0240304 -0.0680094,-0.0420659 -0.108213,-0.0540555 -0.0566287,-0.0168884 -0.112118,-0.0229068 -0.166566,-0.0180984 -0.0540241,0.004777 -0.107043,0.0202158 -0.159146,0.0462733l-0.00204673 0.0461083c0.0522681,-0.0148024 0.101236,-0.0231936 0.146905,-0.0250675 0.0467643,-0.00191316 0.0900834,0.0030092 0.129953,0.0149006 0.0424273,0.0126536 0.0827647,0.0335686 0.120871,0.0627649z"/>
   <path id="_106000040" class="fil0" d="M5.33722 0.872215c-0.0330069,-0.0450044 -0.068304,-0.0818533 -0.105762,-0.110551 -0.0375639,-0.0287799 -0.0773316,-0.0494003 -0.119162,-0.0618771 -0.0393317,-0.0117264 -0.0820851,-0.016582 -0.128272,-0.0146885 -0.0462654,0.00189744 -0.0959997,0.0105636 -0.149215,0.0258767l-0.0035199 0.00101354 0.000164995 -0.00372025 0.0022785 -0.0513135 6.67837e-005 -0.00148496 0.00131996 -0.000663909c0.0531363,-0.0267646 0.1072,-0.0426041 0.162277,-0.0474715 0.0551044,-0.00487128 0.111238,0.00121782 0.168503,0.0182948 0.0407852,0.0121625 0.0773945,0.0304848 0.109887,0.0549119 0.0324726,0.0244193 0.0608203,0.0549355 0.0851021,0.0915055l0.000616767 0.000931044 -0.000212137 0.00107247 -0.0194616 0.0972293 -0.00113925 0.00567662 -0.00347275 -0.00474165z"/>
   <path id="_105997424" class="fil0" d="M5.29425 0.581859c0.0296559,0.0245253 0.0551398,0.0552734 0.0764399,0.0922676l0.0354582 -0.191783c-0.0205694,-0.0599757 -0.0473025,-0.108445 -0.0801523,-0.145259 -0.0328183,-0.0367782 -0.0717925,-0.0619517 -0.116879,-0.0753988 -0.02273,-0.00678051 -0.0500407,-0.0107404 -0.0818415,-0.0119818 -0.0319108,-0.00124925 -0.068363,0.000243564 -0.109266,0.0043763l0 3.92846e-006c-0.0522642,0.00560591 -0.094114,0.00962079 -0.125518,0.0119857 -0.0289291,0.00218029 -0.0491057,0.00296991 -0.0605178,0.00231779l0.00936151 0.282853c0.0665284,-0.022785 0.128413,-0.03646 0.185517,-0.0409895 0.0581529,-0.00461593 0.111356,0.000239636 0.159476,0.0145903 0.0406124,0.0121114 0.0765931,0.0311016 0.107923,0.0570176z"/>
   <path id="_106002128" class="fil0" d="M5.3697 0.682828c-0.0216497,-0.0391746 -0.04788,-0.0714743 -0.0786752,-0.0969464 -0.0307716,-0.0254525 -0.0661316,-0.0441087 -0.106053,-0.0560158 -0.0475264,-0.0141739 -0.100101,-0.0189666 -0.157578,-0.0144056 -0.0576304,0.00456879 -0.120223,0.0185462 -0.187635,0.0418852l-0.00336669 0.00117068 -0.000117854 -0.00362989 -0.00957364 -0.289291 -9.42829e-005 -0.00287563 0.00285206 0.000263206c0.0103633,0.000958543 0.0312116,0.00022785 0.0625017,-0.00212922 0.0314041,-0.00236886 0.0732028,-0.00637588 0.125369,-0.0119739l1.17854e-005 3.92846e-006c0.041127,-0.00415238 0.0778266,-0.00565305 0.110001,-0.00439594 0.032288,0.00126103 0.0600268,0.0052877 0.0831261,0.0121743 0.0460376,0.01373 0.085825,0.0394378 0.119331,0.076982 0.0334665,0.037501 0.0606357,0.086811 0.0814722,0.147777l0.00010214 0.00134353 -0.0368646 0.199389 -0.00480843 0.000675694z"/>
   <polygon id="_106003544" class="fil0" points="5.48031,1.10417 5.51714,1.11008 5.64672,0.489101 5.58414,0.484626 5.48026,1.1041 5.48032,1.10411 "/>
   <path id="_106003976" class="fil0" d="M6.28894 1.12739l0.0145746 -0.03492c-0.00725586,-0.0212726 -0.0199487,-0.0425805 -0.038161,-0.0640063 -0.0185777,-0.0218501 -0.0428791,-0.0438062 -0.0729986,-0.065947 -0.0258885,-0.018943 -0.051722,-0.0350143 -0.0774731,-0.048265 -0.0258964,-0.0133253 -0.0517456,-0.0238104 -0.0775123,-0.0314944 -0.0413234,-0.0123236 -0.0814054,-0.0177016 -0.120258,-0.016036 -0.0384478,0.00165388 -0.0757053,0.0102061 -0.111788,0.0257628l-0.0224865 0.0935522c0.0438416,-0.0168452 0.0863082,-0.0268588 0.127302,-0.0299427 0.0423723,-0.00318205 0.083189,0.00100961 0.122344,0.0126889 0.0329087,0.00981328 0.0709872,0.0281906 0.114228,0.0550573 0.0423959,0.0263364 0.0898084,0.0608793 0.14223,0.10355z"/>
   <path id="_105063888" class="fil0" d="M6.30867 1.0937l-0.0162599 0.0389546 -0.00130818 0.00313884 -0.00267135 -0.00218422c-0.0532934,-0.0435194 -0.101409,-0.0786595 -0.144355,-0.105338 -0.0428084,-0.0265996 -0.0804626,-0.0447765 -0.112947,-0.0544641 -0.0385499,-0.0114986 -0.078742,-0.0156313 -0.120466,-0.0124925 -0.0419755,0.00315848 -0.0855225,0.0136671 -0.130543,0.0314276l-0.00470629 0.00185423 0.00119818 -0.00497735 0.0239714 -0.0997238 0.000290706 -0.00121782 0.00114318 -0.000494985c0.0370571,-0.0161381 0.0753006,-0.0249968 0.114742,-0.0266939 0.0394338,-0.00169709 0.0800816,0.0037556 0.121963,0.0162442 0.0260378,0.00776656 0.0521856,0.0183734 0.0784041,0.0318676 0.0259985,0.0133764 0.0520756,0.029597 0.0781998,0.0487128 0.0304652,0.0224001 0.0550769,0.0446351 0.0739139,0.0667916 0.0189273,0.0222665 0.032064,0.0444937 0.0394888,0.0667562l-5.89268e-005 0.00183852z"/>
   <path id="_105063720" class="fil0" d="M6.35437 0.884523l0.0138085 -0.0322448c-0.00737764,-0.0208012 -0.0204005,-0.0417241 -0.0390881,-0.0628042 -0.0190726,-0.0215161 -0.0440576,-0.0432012 -0.0749667,-0.0651102l0 -3.92846e-006c-0.0266428,-0.0186837 -0.0531088,-0.0345822 -0.0793626,-0.0477464 -0.0264464,-0.0132546 -0.0526806,-0.0237318 -0.0786712,-0.0314826 -0.0446665,-0.0133214 -0.0873963,-0.0191355 -0.128197,-0.0173834 -0.040302,0.00172852 -0.0787498,0.0108386 -0.115339,0.0273774l-0.0116636 0.0919691c0.0452912,-0.0180159 0.0893252,-0.0287524 0.132012,-0.0321112 0.0439005,-0.00346097 0.0863592,0.000868189 0.12729,0.0130778 0.0342365,0.0102101 0.0727864,0.0285992 0.11565,0.0551084 0.042007,0.0259749 0.088182,0.0597832 0.138529,0.101354z"/>
   <path id="_75149456" class="fil0" d="M6.37335 0.853524l-0.015537 0.0362832 -0.0013396 0.00311919 -0.00265564 -0.00220386c-0.0511721,-0.0424037 -0.0980385,-0.0768013 -0.140588,-0.103114 -0.0424273,-0.0262421 -0.0805569,-0.0444387 -0.114389,-0.054527 -0.0403531,-0.0120329 -0.0821872,-0.0163031 -0.125412,-0.0128971 -0.0434605,0.00342168 -0.0883863,0.0146021 -0.13466,0.0334312l-0.00416023 0.00169316 0.000573554 -0.00452165 0.01241 -0.0978735 0.00017678 -0.00139853 0.00128068 -0.00058534c0.0375835,-0.0171831 0.0770802,-0.0266428 0.118494,-0.0284184 0.0413784,-0.00177173 0.0846818,0.00411309 0.129898,0.0175955 0.0262814,0.00783727 0.0528024,0.0184284 0.0795316,0.0318283 0.026466,0.0132664 0.0531559,0.0293063 0.0800462,0.0481629l7.85691e-006 3.92846e-006c0.0312469,0.0221408 0.0565344,0.0441008 0.0758899,0.0659352 0.0194498,0.0219404 0.0329362,0.0437826 0.0404867,0.0655934l-5.49984e-005 0.00189352z"/>
  </g>
 </g>
</svg>
